<svg width="22" height="19" viewBox="0 0 22 19" fill="none" xmlns="http://www.w3.org/2000/svg">
<path d="M1 1.77L2.28 0.5L19 17.22L17.73 18.5L14.65 15.42C13.5 15.8 12.28 16 11 16C6 16 1.73 12.89 0 8.5C0.69 6.74 1.79 5.19 3.19 3.96L1 1.77ZM11 5.5C11.7956 5.5 12.5587 5.81607 13.1213 6.37868C13.6839 6.94129 14 7.70435 14 8.5C14.0005 8.84057 13.943 9.17873 13.83 9.5L10 5.67C10.3213 5.55698 10.6594 5.49949 11 5.5ZM11 1C16 1 20.27 4.11 22 8.5C21.1834 10.5729 19.7966 12.3723 18 13.69L16.58 12.26C17.9629 11.3034 19.0783 10.0091 19.82 8.5C19.0117 6.84987 17.7565 5.45963 16.1974 4.48735C14.6382 3.51508 12.8375 2.99976 11 3C9.91 3 8.84 3.18 7.84 3.5L6.3 1.97C7.74 1.35 9.33 1 11 1ZM2.18 8.5C2.98835 10.1501 4.24345 11.5404 5.80264 12.5126C7.36182 13.4849 9.16251 14.0002 11 14C11.69 14 12.37 13.93 13 13.79L10.72 11.5C10.0242 11.4254 9.37482 11.1149 8.87997 10.62C8.38512 10.1252 8.07458 9.47584 8 8.78L4.6 5.37C3.61 6.22 2.78 7.28 2.18 8.5Z" fill="#8E8E93"/>
</svg>
